<?xml version="1.0" encoding="UTF-8" standalone="no"?><svg xmlns="http://www.w3.org/2000/svg" xmlns:xlink="http://www.w3.org/1999/xlink" contentScriptType="application/ecmascript" contentStyleType="text/css" height="67px" preserveAspectRatio="none" style="width:174px;height:67px;" version="1.1" viewBox="0 0 174 67" width="174px" zoomAndPan="magnify"><defs><filter height="300%" id="f1kg5xrchsxfhi" width="300%" x="-1" y="-1"><feGaussianBlur result="blurOut" stdDeviation="2.0"/><feColorMatrix in="blurOut" result="blurOut2" type="matrix" values="0 0 0 0 0 0 0 0 0 0 0 0 0 0 0 0 0 0 .4 0"/><feOffset dx="4.0" dy="4.0" in="blurOut2" result="blurOut3"/><feBlend in="SourceGraphic" in2="blurOut3" mode="normal"/></filter></defs><g><!--MD5=[1f24f7b92150e3316908f7910ce81742]
class Grid--><rect fill="#FEFECE" filter="url(#f1kg5xrchsxfhi)" height="48" id="Grid" style="stroke: #A80036; stroke-width: 1.5;" width="55" x="6" y="8"/><ellipse cx="21" cy="24" fill="#ADD1B2" rx="11" ry="11" style="stroke: #A80036; stroke-width: 1.0;"/><path d="M23.9688,29.6406 Q23.3906,29.9375 22.75,30.0781 Q22.1094,30.2344 21.4063,30.2344 Q18.9063,30.2344 17.5781,28.5938 Q16.2656,26.9375 16.2656,23.8125 Q16.2656,20.6875 17.5781,19.0313 Q18.9063,17.375 21.4063,17.375 Q22.1094,17.375 22.75,17.5313 Q23.4063,17.6875 23.9688,17.9844 L23.9688,20.7031 Q23.3438,20.125 22.75,19.8594 Q22.1563,19.5781 21.5313,19.5781 Q20.1875,19.5781 19.5,20.6563 Q18.8125,21.7188 18.8125,23.8125 Q18.8125,25.9063 19.5,26.9844 Q20.1875,28.0469 21.5313,28.0469 Q22.1563,28.0469 22.75,27.7813 Q23.3438,27.5 23.9688,26.9219 L23.9688,29.6406 Z "/><text fill="#000000" font-family="sans-serif" font-size="12" lengthAdjust="spacingAndGlyphs" textLength="23" x="35" y="29.232">Grid</text><line style="stroke: #A80036; stroke-width: 1.5;" x1="7" x2="60" y1="40" y2="40"/><line style="stroke: #A80036; stroke-width: 1.5;" x1="7" x2="60" y1="48" y2="48"/><!--MD5=[a93eece2759162ba693d9a7677009c27]
class Snake--><rect fill="#FEFECE" filter="url(#f1kg5xrchsxfhi)" height="48" id="Snake" style="stroke: #A80036; stroke-width: 1.5;" width="67" x="96" y="8"/><ellipse cx="111" cy="24" fill="#ADD1B2" rx="11" ry="11" style="stroke: #A80036; stroke-width: 1.0;"/><path d="M113.9688,29.6406 Q113.3906,29.9375 112.75,30.0781 Q112.1094,30.2344 111.4063,30.2344 Q108.9063,30.2344 107.5781,28.5938 Q106.2656,26.9375 106.2656,23.8125 Q106.2656,20.6875 107.5781,19.0313 Q108.9063,17.375 111.4063,17.375 Q112.1094,17.375 112.75,17.5313 Q113.4063,17.6875 113.9688,17.9844 L113.9688,20.7031 Q113.3438,20.125 112.75,19.8594 Q112.1563,19.5781 111.5313,19.5781 Q110.1875,19.5781 109.5,20.6563 Q108.8125,21.7188 108.8125,23.8125 Q108.8125,25.9063 109.5,26.9844 Q110.1875,28.0469 111.5313,28.0469 Q112.1563,28.0469 112.75,27.7813 Q113.3438,27.5 113.9688,26.9219 L113.9688,29.6406 Z "/><text fill="#000000" font-family="sans-serif" font-size="12" lengthAdjust="spacingAndGlyphs" textLength="35" x="125" y="29.232">Snake</text><line style="stroke: #A80036; stroke-width: 1.5;" x1="97" x2="162" y1="40" y2="40"/><line style="stroke: #A80036; stroke-width: 1.5;" x1="97" x2="162" y1="48" y2="48"/><!--MD5=[ee90c51da75b12f30cf08f9453524a63]
reverse link Grid to Snake--><path d="M74.5176,32 C81.6478,32 88.778,32 95.9082,32 " fill="none" id="Grid&lt;-Snake" style="stroke: #A80036; stroke-width: 1.0;"/><polygon fill="#A80036" points="61.25,32,67.25,36,73.25,32,67.25,28,61.25,32" style="stroke: #A80036; stroke-width: 1.0;"/><!--MD5=[ff2fd313c34f0651eda888a531b9871f]
@startuml
Grid *- Snake
@enduml

PlantUML version 1.2020.00(Sat Jan 11 20:30:53 CST 2020)
(GPL source distribution)
Java Runtime: OpenJDK Runtime Environment
JVM: OpenJDK 64-Bit Server VM
Java Version: 11.0.6+10-post-Ubuntu-1ubuntu119.10.1
Operating System: Linux
Default Encoding: UTF-8
Language: en
Country: US
--></g></svg>